<svg id="Layer_1" data-name="Layer 1" xmlns="http://www.w3.org/2000/svg" viewBox="0 0 247.04 88.57">
    <defs>
        <style>.cls-1{fill:#fff;}.cls-2{fill:#46faaa;}</style>
    </defs>
    <path class="cls-1" d="M99.54,12.25,98.67,19H56.08l1-6.79Zm-17.31,0L74.57,66.76h-7.9l7.66-54.51Z"/>
    <path class="cls-1" d="M115.65,12.25,108,66.76h-8l7.66-54.51Z"/>
    <path class="cls-1"
          d="M136.51,12.25l-6.08,43a5.34,5.34,0,0,0,.67,3.63c.61.9,1.8,1.34,3.59,1.34h19.6l-.24,6.17q-5.13.31-10.7.39t-10.87.08a12.06,12.06,0,0,1-5.76-1.3,7.72,7.72,0,0,1-3.56-3.87,11.25,11.25,0,0,1-.55-6.21l5.92-43.21Z"/>
    <path class="cls-1"
          d="M179,12.17h8.17q4.16,0,8.1.12c2.64.07,5.16.19,7.59.35l-1,6.08H180.36A5.2,5.2,0,0,0,176.53,20a6.91,6.91,0,0,0-1.62,4L170.64,55.3c-.26,1.74-.07,3,.59,3.8s1.86,1.18,3.6,1.18h21.09l-.15,6.09c-2.32.15-4.74.26-7.27.31s-5.09.09-7.67.12-5.08,0-7.5,0c-4.06,0-7-1-8.81-3s-2.46-4.76-1.94-8.18l4.74-33.89a10.88,10.88,0,0,1,3.56-7Q173.81,12.17,179,12.17ZM166.85,35.08h29.63l-.79,6H166Z"/>
    <path class="cls-1"
          d="M228.79,11.3q4,.07,8.29.39A49.62,49.62,0,0,1,245.22,13l-.71,5.61c-1.79-.11-3.57-.17-5.33-.2l-5.26-.08c-1.73,0-3.52,0-5.37,0-1.68,0-3.19,0-4.5.12a9.85,9.85,0,0,0-3.4.75,5.09,5.09,0,0,0-2.33,2.21,12.53,12.53,0,0,0-1.3,4.5,13.54,13.54,0,0,0,.08,4,3.68,3.68,0,0,0,1.58,2.37,16.27,16.27,0,0,0,3.63,1.73l10.51,4a18.59,18.59,0,0,1,6.32,3.64,9.26,9.26,0,0,1,2.72,4.94,20.56,20.56,0,0,1,0,6.91q-.78,5.93-3.12,9a11.56,11.56,0,0,1-6.55,4.18,43.92,43.92,0,0,1-10.87,1.11q-2.52,0-7-.28a83.24,83.24,0,0,1-10-1.3l.94-5.77,7.59.28c2,.08,3.58.12,4.9.12h3.55a32.11,32.11,0,0,0,6.95-.6,6.81,6.81,0,0,0,4-2.25,10.5,10.5,0,0,0,1.81-5.21,11.92,11.92,0,0,0,0-4.07,3.92,3.92,0,0,0-1.62-2.37,13.85,13.85,0,0,0-3.55-1.7l-10.75-4.11a17.14,17.14,0,0,1-6-3.63,10,10,0,0,1-2.77-5.06,19.64,19.64,0,0,1-.15-6.64,19.31,19.31,0,0,1,2.13-7.34,10.56,10.56,0,0,1,4.07-4.15,16.85,16.85,0,0,1,5.84-1.86A55.43,55.43,0,0,1,228.79,11.3Z"/>
    <path class="cls-2"
          d="M24.18,41.63.12,65.93a.4.4,0,0,0,.29.69H48.54a.41.41,0,0,0,.29-.69L24.76,41.63A.41.41,0,0,0,24.18,41.63Z"/>
    <path class="cls-2"
          d="M24.76,36.74l24.07-24.3a.41.41,0,0,0-.29-.69H.41a.4.4,0,0,0-.29.69l24.06,24.3A.41.41,0,0,0,24.76,36.74Z"/>
</svg>
